Motion_pu04
version=1
nRows=5
nColumns=43
inDegrees=yes
endheader
time	pelvis_tilt	pelvis_list	pelvis_rotation	pelvis_tx	pelvis_ty	pelvis_tz	hip_flexion_r	hip_adduction_r	hip_rotation_r	knee_angle_r	ankle_angle_r	subtalar_angle_r	mtp_angle_r	hip_flexion_l	hip_adduction_l	hip_rotation_l	knee_angle_l	ankle_angle_l	subtalar_angle_l	mtp_angle_l	lumbar_extension	lumbar_bending	lumbar_rotation	neck_flexion	neck_lateral_bending	neck_rotation	arm_flex_r	arm_add_r	arm_rot_r	elbow_flex_r	pro_sup_r	wrist_flex_r	wrist_dev_r	hand_finger_flex_r	arm_flex_l	arm_add_l	arm_rot_l	elbow_flex_l	pro_sup_l	wrist_flex_l	wrist_dev_l	hand_finger_flex_l
      0.94500000	      1.09322785	      3.18494635	    -87.32172975	     -0.00322344	      0.91044455	      1.30478533	     18.38273108	     -8.74328236	     -6.55031107	    -72.22346586	     29.35811472	     -7.28335657	     -2.49766644	     13.16281993	     -3.99225512	    -12.61983742	    -68.65466352	     32.54153003	     -2.12811500	     -6.01717290	     29.87369212	     -2.63604431	     -9.42253256	     -4.46731273	     -2.89093791	     10.11622326	   -237.97858473	    -17.90430314	   -351.72331439	     58.41947519	    143.91945574	     21.56487075	     -0.02669316	     80.33634604	    135.04830849	    -30.48931390	     29.29184643	     60.73730044	    130.79093382	     32.04654708	     28.68437960	     90.00021046
      0.94750000	      1.11043841	      3.07357098	    -87.30810220	     -0.00340764	      0.91180965	      1.30393685	     18.39383867	     -8.72315543	     -6.50783884	    -72.31258888	     29.37121292	     -7.29373973	     -2.49586898	     13.16410134	     -4.01307821	    -12.64415268	    -68.75347836	     32.56192437	     -2.13848752	     -6.01364526	     29.88749460	     -2.69118465	     -9.48238510	     -4.35562753	     -2.89135886	     10.09825535	   -238.46889667	    -17.86301783	   -351.75849555	     58.55665936	    143.90365664	     21.58505815	     -0.03953789	     80.33421457	    134.67081101	    -30.56909452	     29.30194062	     60.78495988	    130.82370586	     32.07379824	     28.67505391	     90.00021046
      0.95000000	      1.16533833	      2.95796910	    -87.27740360	     -0.00365882	      0.91365591	      1.30285393	     18.34771675	     -8.70550726	     -6.42216786	    -72.21008634	     29.31492967	     -7.34977467	     -2.50774087	     13.12202534	     -4.00045965	    -12.70537167	    -68.60033195	     32.49704026	     -2.09400907	     -6.01471681	     29.93372122	     -2.83814299	     -9.52058903	     -4.59776122	     -2.69160063	      9.99011597	   -239.39201847	    -17.73002773	   -352.68043585	     59.23153919	    144.05532653	     21.63788642	     -0.01048400	     80.27029793	    133.64637724	    -30.55104551	     28.22877002	     61.68157569	    131.29300915	     32.17706780	     28.70665858	     90.00021046
      0.95250000	      1.17676677	      2.82121521	    -87.28329055	     -0.00402914	      0.91525440	      1.30172337	     18.35552368	     -8.66917859	     -6.43943365	    -72.28950920	     29.29114374	     -7.37844121	     -2.51342998	     13.10973722	     -4.03950344	    -12.70548958	    -68.60904056	     32.47347168	     -2.08172529	     -6.01680043	     29.90049878	     -2.93576990	     -9.45990447	     -4.63848111	     -2.79497998	      9.98567639	   -240.06595341	    -17.90200476	   -352.85675495	     59.86489975	    144.12718030	     21.66152051	     -0.02984016	     80.23825585	    133.01820040	    -30.43680296	     27.80361493	     62.11950730	    131.54243605	     32.23880840	     28.72291646	     90.00021046
      0.95500000	      1.23344136	      2.64409818	    -87.24354291	     -0.00391136	      0.91709176	      1.30092003	     18.23154668	     -8.69756161	     -6.37818432	    -72.22807895	     29.15442909	     -7.45669501	     -2.54048743	     12.98030842	     -3.99769243	    -12.75746250	    -68.51370450	     32.32167537	     -2.00283745	     -6.04234454	     29.93562174	     -3.01247188	     -9.34078157	     -5.10456546	     -2.55212643	      9.83998058	   -240.69422987	    -17.89188697	   -353.16851865	     60.19095125	    144.59464509	     21.80195305	      0.04021236	     80.11764408	    131.78896582	    -30.19705616	     26.36483843	     62.66079534	    132.42173890	     32.35480580	     28.88279629	     90.00021046
